<?xml version="1.0" standalone="no"?>
<!DOCTYPE svg PUBLIC "-//W3C//DTD SVG 20010904//EN"
 "http://www.w3.org/TR/2001/REC-SVG-20010904/DTD/svg10.dtd">
<svg version="1.0" xmlns="http://www.w3.org/2000/svg"
 width="184.000000pt" height="184.000000pt" viewBox="0 0 184.000000 184.000000"
 preserveAspectRatio="xMidYMid meet">
<metadata>
Created by potrace 1.14, written by Peter Selinger 2001-2017
</metadata>
<g transform="translate(0.000000,184.000000) scale(0.100000,-0.100000)"
fill="#000000" stroke="none">
<path d="M0 920 l0 -920 920 0 920 0 0 920 0 920 -920 0 -920 0 0 -920z m1731
865 c26 -18 53 -50 68 -80 l26 -49 3 -363 c2 -200 -1 -363 -5 -363 -4 0 -21
31 -36 69 -121 295 -305 427 -513 366 -142 -41 -256 -122 -302 -215 -68 -134
-49 -265 73 -530 96 -208 106 -330 44 -543 l-20 -68 -442 3 -443 3 -49 26
c-30 15 -62 42 -80 68 l-30 43 -3 755 -2 755 27 50 c20 37 41 58 78 79 l50 29
757 -2 756 -3 43 -30z m-181 -697 c67 -34 105 -102 104 -183 0 -61 0 -62 32
-74 53 -19 63 -84 23 -148 -12 -20 -7 -29 54 -104 l67 -82 0 -146 c0 -80 -5
-163 -11 -185 -6 -21 -28 -58 -50 -81 -61 -66 -99 -75 -312 -75 -172 0 -179 1
-174 19 10 38 -13 263 -34 342 -17 65 -19 85 -10 105 10 23 8 29 -24 58 -40
38 -43 59 -16 100 l20 29 -39 28 c-52 38 -80 94 -80 162 0 65 24 97 73 97 42
0 97 -45 122 -99 18 -40 19 -41 41 -26 13 8 30 15 38 15 24 0 27 15 11 54 -33
78 -8 167 55 198 45 23 57 23 110 -4z"/>
<path d="M1462 988 c-22 -28 -18 -102 8 -128 28 -28 96 -28 105 0 23 72 -71
178 -113 128z"/>
<path d="M1172 848 c-26 -26 -2 -106 37 -128 27 -14 28 -13 46 14 14 21 14 28
2 59 -13 30 -50 67 -67 67 -3 0 -11 -5 -18 -12z"/>
</g>
</svg>
